<svg xmlns="http://www.w3.org/2000/svg" xmlns:xlink="http://www.w3.org/1999/xlink" version="1.1" width="2480" height="1438" style="width: 2480px; height: 1438px; background: #ffffff" viewBox="0 0 2480 1438"><style id="v-3" type="text/css">        .joint-element .scalable * {            vector-effect: non-scaling-stroke;        }    </style><defs joint-selector="defs"><marker id="v-21252848929" orient="auto" overflow="visible" markerUnits="userSpaceOnUse"><path id="v-62" stroke="#444444" fill="#444444" transform="rotate(180)" d="M 20 -10 0 0 20 10 Z"></path></marker><marker id="v-2-527367903" orient="auto" overflow="visible" markerUnits="userSpaceOnUse"><path id="v-1740" stroke="#cccccc" fill="#cccccc" transform="rotate(180)" d="M 20 -10 0 0 20 10 Z"></path></marker></defs><g  joint-selector="layers" transform="matrix(1,0,0,1,0,0)"><g style="pointer-events: none;" ></g><g ></g><g  style="user-select: none;"><!--z-index:-2--><!--z-index:-1--><!--z-index:0--><!--z-index:1--><!--z-index:2--><!--z-index:3--><!--z-index:4--><!--z-index:5--><!--z-index:6--><!--z-index:7--><!--z-index:8--><!--z-index:9--><!--z-index:10--><!--z-index:11--><!--z-index:12--><g   id="j_219"  transform="translate(20,1394)"><g id="v-2234"><text  id="v-2235" font-size="24px" xml:space="preserve" y="0.8em" font-weight="normal" text-anchor="start" fill="#444444" pointer-events="none" display="block" font-family="Tahoma, Verdana, Helvetica, Arial"><tspan  dy="0">Thursday, July 16, 2026 at 12:43 PM Central European Summer Time</tspan></text></g></g><!--z-index:13--><g   id="j_218"  transform="translate(20,1360)"><g id="v-2232"><text  id="v-2233" font-size="24px" xml:space="preserve" y="0.8em" font-weight="normal" text-anchor="start" fill="#444444" pointer-events="none" display="block" font-family="Tahoma, Verdana, Helvetica, Arial"><tspan  dy="0">Shows the single Streamlit runtime container and its ephemeral in-memory analysis state.</tspan></text></g></g><!--z-index:14--><g   id="j_217"  transform="translate(20,1314)"><g id="v-2230"><text  id="v-2231" font-size="36px" xml:space="preserve" y="0.8em" font-weight="normal" text-anchor="start" fill="#444444" pointer-events="none" display="block" font-family="Tahoma, Verdana, Helvetica, Arial"><tspan  dy="0">Containers - Gaussian Process Regression Web Application</tspan></text></g></g><!--z-index:15--><g   id="j_220"  transform="translate(200,358)" style=""><g  id="v-2239" style="opacity: 1;"><rect  x="0" y="160" width="400" height="240" rx="70" id="v-2241" stroke-width="2" pointer-events="visiblePainted" fill="#0b5f6a" stroke="#0a565f" stroke-dasharray="" style="fill: rgb(11, 95, 106); stroke: rgb(10, 86, 95);"></rect><circle  cx="200" cy="88.88888888888889" r="88.88888888888889" id="v-2240" stroke-width="2" pointer-events="visiblePainted" fill="#0b5f6a" stroke="#0a565f" stroke-dasharray="" style="fill: rgb(11, 95, 106); stroke: rgb(10, 86, 95);"></circle><line  x1="80" y1="266.6666666666667" x2="80" y2="400" id="v-2247" stroke="#0a565f" stroke-width="1" stroke-dasharray="" style="stroke: rgb(10, 86, 95);"></line><line  x1="320" y1="266.6666666666667" x2="320" y2="400" id="v-2248" stroke="#0a565f" stroke-width="1" stroke-dasharray="" style="stroke: rgb(10, 86, 95);"></line><text  id="v-2242" font-size="33.599999999999994px" xml:space="preserve" y="159.3" font-weight="bold" text-anchor="middle" pointer-events="visible" font-family="Tahoma, Verdana, Helvetica, Arial" fill="#ffffff" dominant-baseline="hanging" transform="matrix(1,0,0,1,200,0)" style="fill: rgb(255, 255, 255);"><tspan  dy="0">Researcher</tspan></text><text  id="v-2243" font-size="16.799999999999997px" xml:space="preserve" y="200.9" text-anchor="middle" font-family="Tahoma, Verdana, Helvetica, Arial" fill="#ffffff" dominant-baseline="hanging" transform="matrix(1,0,0,1,200,0)" style="display: block; fill: rgb(255, 255, 255);"><tspan  dy="0">[Person]</tspan></text><text  id="v-2244" font-size="24px" xml:space="preserve" y="232.7" text-anchor="middle" font-family="Tahoma, Verdana, Helvetica, Arial" fill="#ffffff" dominant-baseline="hanging" transform="matrix(1,0,0,1,200,0)" style="display: block; fill: rgb(255, 255, 255);"><tspan  dy="0">Uploads small experimental</tspan><tspan dy="1.2em" x="0" >datasets, configures</tspan><tspan dy="1.2em" x="0" >Gaussian Process</tspan><tspan dy="1.2em" x="0" >Regression, interprets</tspan><tspan dy="1.2em" x="0" >uncertainty, and exports</tspan><tspan dy="1.2em" x="0" >results.</tspan></text><g  id="v-2245" font-weight="normal" text-anchor="middle" color="#ffffff" transform="matrix(1,0,0,1,197.5,368)" style="fill: rgb(255, 255, 255);" display="none"><g ></g><g ></g><g ></g><g ></g></g><image  id="v-2246"></image></g></g><!--z-index:16--><g   id="j_221"  transform="translate(1780,143)" style=""><g  id="v-2255" style="opacity: 1;"><rect  id="v-2256" rx="1" ry="1" stroke-width="2" pointer-events="visiblePainted" fill="#6d6d6d" stroke="#626262" stroke-dasharray="" width="450" height="300" style="fill: rgb(109, 109, 109); stroke: rgb(98, 98, 98);"></rect><text  id="v-2257" font-size="33.599999999999994px" xml:space="preserve" y="37.94000000000001" font-weight="bold" text-anchor="middle" pointer-events="visible" font-family="Tahoma, Verdana, Helvetica, Arial" fill="#ffffff" dominant-baseline="hanging" transform="matrix(1,0,0,1,225,0)" style="fill: rgb(255, 255, 255);"><tspan  dy="0">Researcher's Local File</tspan><tspan dy="1.2em" x="0" >System</tspan></text><text  id="v-2258" font-size="16.799999999999997px" xml:space="preserve" y="119.86" text-anchor="middle" font-family="Tahoma, Verdana, Helvetica, Arial" fill="#ffffff" dominant-baseline="hanging" transform="matrix(1,0,0,1,225,0)" style="display: block; fill: rgb(255, 255, 255);"><tspan  dy="0">[Software System]</tspan></text><text  id="v-2259" font-size="24px" xml:space="preserve" y="151.66" text-anchor="middle" font-family="Tahoma, Verdana, Helvetica, Arial" fill="#ffffff" dominant-baseline="hanging" transform="matrix(1,0,0,1,225,0)" style="display: block; fill: rgb(255, 255, 255);"><tspan  dy="0">Source of uploaded CSV files</tspan><tspan dy="1.2em" x="0" >and destination for downloaded</tspan><tspan dy="1.2em" x="0" >result, plot, and metadata</tspan><tspan dy="1.2em" x="0" >artifacts.</tspan></text><g  id="v-2260" color="#ffffff" transform="matrix(1,0,0,1,222.5,268)" style="fill: rgb(255, 255, 255);" display="none"><g ></g><g ></g><g ></g><g ></g></g><image  id="v-2261"></image></g></g><!--z-index:17--><g   id="j_223"  transform="translate(940,577)" style="; opacity: 1;"><g id="v-2278"><rect  id="v-2279" width="1340" height="603" rx="0" ry="0" stroke-width="2" pointer-events="none" stroke="#2f5086" fill="#ffffff" opacity="1" stroke-dasharray=""></rect><text  id="v-2280" font-size="33.599999999999994px" xml:space="preserve" y="564" font-weight="bold" text-anchor="start" pointer-events="visible" font-family="Tahoma, Verdana, Helvetica, Arial" fill="#2f5086" transform="matrix(1,0,0,1,15,0)"><tspan  dy="0">Gaussian Process Regression Web Application</tspan></text><text  id="v-2281" font-size="16.799999999999997px" xml:space="preserve" y="588" font-weight="normal" text-anchor="start" pointer-events="visible" font-family="Tahoma, Verdana, Helvetica, Arial" fill="#2f5086" transform="matrix(1,0,0,1,15,0)"><tspan  dy="0">[Software System]</tspan></text><image  id="v-2282" pointer-events="visible"></image></g></g><!--z-index:18--><g   id="j_222"  transform="translate(990,627)" style=""><g  id="v-2271" style="opacity: 1;"><rect  id="v-2272" rx="1" ry="1" stroke-width="2" pointer-events="visiblePainted" fill="#4f7cac" stroke="#47709b" stroke-dasharray="" width="450" height="300" style="fill: rgb(79, 124, 172); stroke: rgb(71, 112, 155);"></rect><text  id="v-2273" font-size="33.599999999999994px" xml:space="preserve" y="23.54000000000002" font-weight="bold" text-anchor="middle" pointer-events="visible" font-family="Tahoma, Verdana, Helvetica, Arial" fill="#ffffff" dominant-baseline="hanging" transform="matrix(1,0,0,1,225,0)" style="fill: rgb(255, 255, 255);"><tspan  dy="0">Streamlit Web</tspan><tspan dy="1.2em" x="0" >Application</tspan></text><text  id="v-2274" font-size="16.799999999999997px" xml:space="preserve" y="105.46000000000001" text-anchor="middle" font-family="Tahoma, Verdana, Helvetica, Arial" fill="#ffffff" dominant-baseline="hanging" transform="matrix(1,0,0,1,225,0)" style="display: block; fill: rgb(255, 255, 255);"><tspan  dy="0">[Container: Python 3.12, Streamlit]</tspan></text><text  id="v-2275" font-size="24px" xml:space="preserve" y="137.26" text-anchor="middle" font-family="Tahoma, Verdana, Helvetica, Arial" fill="#ffffff" dominant-baseline="hanging" transform="matrix(1,0,0,1,225,0)" style="display: block; fill: rgb(255, 255, 255);"><tspan  dy="0">Provides the interactive</tspan><tspan dy="1.2em" x="0" >workflow, validates inputs, fits</tspan><tspan dy="1.2em" x="0" >the model, visualizes</tspan><tspan dy="1.2em" x="0" >uncertainty, and creates</tspan><tspan dy="1.2em" x="0" >exports.</tspan></text><g  id="v-2276" color="#ffffff" transform="matrix(1,0,0,1,210,268)" style="fill: rgb(255, 255, 255);" display="none"><g  transform="translate(5 0)"><svg xmlns="http://www.w3.org/2000/svg" width="20" height="20" fill="currentColor" viewBox="0 0 16 16"><path fill-rule="evenodd" d="M6.5 12a5.5 5.5 0 1 0 0-11 5.5 5.5 0 0 0 0 11zM13 6.5a6.5 6.5 0 1 1-13 0 6.5 6.5 0 0 1 13 0z"></path><path d="M10.344 11.742c.03.04.062.078.098.115l3.85 3.85a1 1 0 0 0 1.415-1.414l-3.85-3.85a1.007 1.007 0 0 0-.115-.1 6.538 6.538 0 0 1-1.398 1.4z"></path><path fill-rule="evenodd" d="M6.5 3a.5.5 0 0 1 .5.5V6h2.5a.5.5 0 0 1 0 1H7v2.5a.5.5 0 0 1-1 0V7H3.5a.5.5 0 0 1 0-1H6V3.5a.5.5 0 0 1 .5-.5z"></path></svg></g><g ></g><g ></g><g ></g></g><image  id="v-2277"></image></g></g><!--z-index:19--><g   id="j_224"  transform="translate(1780,751)" style=""><g  id="v-2292" style="opacity: 1;"><rect  id="v-2293" rx="1" ry="1" stroke-width="2" pointer-events="visiblePainted" fill="#4f7cac" stroke="#47709b" stroke-dasharray="" width="450" height="300" style="fill: rgb(79, 124, 172); stroke: rgb(71, 112, 155);"></rect><text  id="v-2294" font-size="33.599999999999994px" xml:space="preserve" y="13.460000000000008" font-weight="bold" text-anchor="middle" pointer-events="visible" font-family="Tahoma, Verdana, Helvetica, Arial" fill="#ffffff" dominant-baseline="hanging" transform="matrix(1,0,0,1,225,0)" style="fill: rgb(255, 255, 255);"><tspan  dy="0">In-memory Analysis</tspan><tspan dy="1.2em" x="0" >Session</tspan></text><text  id="v-2295" font-size="16.799999999999997px" xml:space="preserve" y="95.38" text-anchor="middle" font-family="Tahoma, Verdana, Helvetica, Arial" fill="#ffffff" dominant-baseline="hanging" transform="matrix(1,0,0,1,225,0)" style="display: block; fill: rgb(255, 255, 255);"><tspan  dy="0">[Container: Streamlit session state, Python</tspan><tspan dy="1.2em" x="0" >objects]</tspan></text><text  id="v-2296" font-size="24px" xml:space="preserve" y="147.34" text-anchor="middle" font-family="Tahoma, Verdana, Helvetica, Arial" fill="#ffffff" dominant-baseline="hanging" transform="matrix(1,0,0,1,225,0)" style="display: block; fill: rgb(255, 255, 255);"><tspan  dy="0">Ephemeral active-session state</tspan><tspan dy="1.2em" x="0" >for uploaded data, selected</tspan><tspan dy="1.2em" x="0" >variables, settings, prediction</tspan><tspan dy="1.2em" x="0" >results, visualization metadata,</tspan><tspan dy="1.2em" x="0" >and export payloads.</tspan></text><g  id="v-2297" color="#ffffff" transform="matrix(1,0,0,1,222.5,268)" style="fill: rgb(255, 255, 255);" display="none"><g ></g><g ></g><g ></g><g ></g></g><image  id="v-2298"></image></g></g><!--z-index:20--><g   id="j_225"  style="opacity: 1;"><path fill="none" cursor="pointer" stroke="transparent" stroke-linecap="round" joint-selector="wrapper" id="v-2310" stroke-width="10" stroke-linejoin="round" d="M 600 677.04 L 761 772 C 766.9999999999999 775.4666666666667 773.3333333333333 777.1333333333333 780 777 L 990 777.1"></path><path fill="none" pointer-events="none" joint-selector="line" id="v-2309" stroke="#444444" stroke-width="2" stroke-linejoin="round" stroke-dasharray="8 8" d="M 600 677.04 L 761 772 C 766.9999999999999 775.4666666666667 773.3333333333333 777.1333333333333 780 777 L 990 777.1" marker-end="url(#v-21252848929)"></path><g id="v-2302" ><g id="v-2303"  label-idx="0" cursor="move" transform="matrix(1,0,0,1,770.3984985351562,775.8887329101562)" style="cursor: default;"><rect joint-selector="rect" id="v-2306" fill="#ffffff" rx="3" ry="3" x="-88.15421295166016" y="-32.07889175415039" width="176.3084259033203" height="59.48396682739258" pointer-events="none"  style="display: block;"></rect><text joint-selector="text" id="v-2305" font-size="24px" xml:space="preserve" fill="#444444" text-anchor="middle" pointer-events="none" font-family="Tahoma, Verdana, Helvetica, Arial" font-weight="normal"  style="display: block;"><tspan  dy="-0.3em">Uses to run an</tspan><tspan dy="1.2em" x="0" >analysis</tspan></text></g><g id="v-2304"  label-idx="1" cursor="move" transform="matrix(1,0,0,1,760.3984985351562,802.2887573242188)" style="cursor: default;"><rect joint-selector="rect" id="v-2308" fill="#ffffff" rx="3" ry="3" x="0" y="1.1368683772161603e-13" width="0" height="0"  display="none"></rect><text joint-selector="text" id="v-2307" fill="#000000" font-size="14" text-anchor="middle" text-vertical-anchor="middle" pointer-events="none"></text></g></g></g><!--z-index:21--><g   id="j_226"  style="opacity: 1;"><path fill="none" cursor="pointer" stroke="transparent" stroke-linecap="round" joint-selector="wrapper" id="v-2322" stroke-width="10" stroke-linejoin="round" d="M 600 458.77 L 761 378 C 766.9999999999999 374.9333333333334 773.3333333333333 373.2666666666667 780 373 L 1600 373 C 1606.6666666666665 373.2666666666667 1613.3333333333333 372.6 1620 371 L 1780 338.8"></path><path fill="none" pointer-events="none" joint-selector="line" id="v-2321" stroke="#444444" stroke-width="2" stroke-linejoin="round" stroke-dasharray="8 8" d="M 600 458.77 L 761 378 C 766.9999999999999 374.9333333333334 773.3333333333333 373.2666666666667 780 373 L 1600 373 C 1606.6666666666665 373.2666666666667 1613.3333333333333 372.6 1620 371 L 1780 338.8" marker-end="url(#v-21252848929)"></path><g id="v-2314" ><g id="v-2315"  label-idx="0" cursor="move" transform="matrix(1,0,0,1,1215.042724609375,373)" style="cursor: default;"><rect joint-selector="rect" id="v-2318" fill="#ffffff" rx="3" ry="3" x="-83.16461181640625" y="-75.27889251708984" width="166.3292236328125" height="145.88397216796875" pointer-events="none"  style="display: block;"></rect><text joint-selector="text" id="v-2317" font-size="24px" xml:space="preserve" fill="#444444" text-anchor="middle" pointer-events="none" font-family="Tahoma, Verdana, Helvetica, Arial" font-weight="normal"  style="display: block;"><tspan  dy="-2.1em">Selects CSV</tspan><tspan dy="1.2em" x="0" >files from and</tspan><tspan dy="1.2em" x="0" >saves</tspan><tspan dy="1.2em" x="0" >downloaded</tspan><tspan dy="1.2em" x="0" >artifacts to</tspan></text></g><g id="v-2316"  label-idx="1" cursor="move" transform="matrix(1,0,0,1,1205.042724609375,442.6000061035156)" style="cursor: default;"><rect joint-selector="rect" id="v-2320" fill="#ffffff" rx="3" ry="3" x="0" y="0" width="0" height="0"  display="none"></rect><text joint-selector="text" id="v-2319" fill="#000000" font-size="14" text-anchor="middle" text-vertical-anchor="middle" pointer-events="none"></text></g></g></g><!--z-index:22--><g   id="j_227"  style="opacity: 1;"><path fill="none" cursor="pointer" stroke="transparent" stroke-linecap="round" joint-selector="wrapper" id="v-2334" stroke-width="10" stroke-linejoin="round" d="M 1884.43 443 L 1616 777 C 1612 781.9333333333334 1606.6666666666665 784.2666666666667 1600 784 L 1440 781.22"></path><path fill="none" pointer-events="none" joint-selector="line" id="v-2333" stroke="#444444" stroke-width="2" stroke-linejoin="round" stroke-dasharray="8 8" d="M 1884.43 443 L 1616 777 C 1612 781.9333333333334 1606.6666666666665 784.2666666666667 1600 784 L 1440 781.22" marker-end="url(#v-21252848929)"></path><g id="v-2326" ><g id="v-2327"  label-idx="0" cursor="move" transform="matrix(1,0,0,1,1609.372802734375,782.2816772460938)" style="cursor: default;"><rect joint-selector="rect" id="v-2330" fill="#ffffff" rx="3" ry="3" x="-83.9248046875" y="-46.4788932800293" width="168.23660278320312" height="88.28396606445312" pointer-events="none"  style="display: block;"></rect><text joint-selector="text" id="v-2329" font-size="24px" xml:space="preserve" fill="#444444" text-anchor="middle" pointer-events="none" font-family="Tahoma, Verdana, Helvetica, Arial" font-weight="normal"  style="display: block;"><tspan  dy="-0.8999999999999999em">Provides</tspan><tspan dy="1.2em" x="0" >uploaded CSV</tspan><tspan dy="1.2em" x="0" >content</tspan></text></g><g id="v-2328"  label-idx="1" cursor="move" transform="matrix(1,0,0,1,1599.372802734375,823.0816650390625)" style="cursor: default;"><rect joint-selector="rect" id="v-2332" fill="#ffffff" rx="3" ry="3" x="4.547473508864641e-13" y="0" width="0" height="0"  display="none"></rect><text joint-selector="text" id="v-2331" fill="#000000" font-size="14" text-anchor="middle" text-vertical-anchor="middle" pointer-events="none"></text></g></g></g><!--z-index:23--><g   id="j_228"  style="opacity: 1;"><path fill="none" cursor="pointer" stroke="transparent" stroke-linecap="round" joint-selector="wrapper" id="v-2346" stroke-width="10" stroke-linejoin="round" d="M 1440 698.05 L 1601 642 C 1607 639.6 1612.6666666666665 636.2666666666667 1618 632 L 1833.46 443"></path><path fill="none" pointer-events="none" joint-selector="line" id="v-2345" stroke="#444444" stroke-width="2" stroke-linejoin="round" stroke-dasharray="8 8" d="M 1440 698.05 L 1601 642 C 1607 639.6 1612.6666666666665 636.2666666666667 1618 632 L 1833.46 443" marker-end="url(#v-21252848929)"></path><g id="v-2338" ><g id="v-2339"  label-idx="0" cursor="move" transform="matrix(1,0,0,1,1609.650390625,637.7584838867188)" style="cursor: default;"><rect joint-selector="rect" id="v-2342" fill="#ffffff" rx="3" ry="3" x="-83.82804870605469" y="-60.8788948059082" width="167.65609741210938" height="117.08396911621094" pointer-events="none"  style="display: block;"></rect><text joint-selector="text" id="v-2341" font-size="24px" xml:space="preserve" fill="#444444" text-anchor="middle" pointer-events="none" font-family="Tahoma, Verdana, Helvetica, Arial" font-weight="normal"  style="display: block;"><tspan  dy="-1.4999999999999998em">Provides</tspan><tspan dy="1.2em" x="0" >downloaded</tspan><tspan dy="1.2em" x="0" >results, plot,</tspan><tspan dy="1.2em" x="0" >and metadata</tspan></text></g><g id="v-2340"  label-idx="1" cursor="move" transform="matrix(1,0,0,1,1599.650390625,692.95849609375)" style="cursor: default;"><rect joint-selector="rect" id="v-2344" fill="#ffffff" rx="3" ry="3" x="0" y="0" width="0" height="0"  display="none"></rect><text joint-selector="text" id="v-2343" fill="#000000" font-size="14" text-anchor="middle" text-vertical-anchor="middle" pointer-events="none"></text></g></g></g><!--z-index:24--><g   id="j_229"  style="opacity: 1;"><path fill="none" cursor="pointer" stroke="transparent" stroke-linecap="round" joint-selector="wrapper" id="v-2358" stroke-width="10" stroke-linejoin="round" d="M 1440 847.97 L 1600 899 C 1606.6666666666665 900.7333333333333 1613.3333333333333 901.7333333333333 1620 902 L 1780 901.34"></path><path fill="none" pointer-events="none" joint-selector="line" id="v-2357" stroke="#444444" stroke-width="2" stroke-linejoin="round" stroke-dasharray="8 8" d="M 1440 847.97 L 1600 899 C 1606.6666666666665 900.7333333333333 1613.3333333333333 901.7333333333333 1620 902 L 1780 901.34" marker-end="url(#v-21252848929)"></path><g id="v-2350" ><g id="v-2351"  label-idx="0" cursor="move" transform="matrix(1,0,0,1,1610.078125,901.0617065429688)" style="cursor: default;"><rect joint-selector="rect" id="v-2354" fill="#ffffff" rx="3" ry="3" x="-96.5992202758789" y="-32.07889175415039" width="193.19842529296875" height="59.48396682739258" pointer-events="none"  style="display: block;"></rect><text joint-selector="text" id="v-2353" font-size="24px" xml:space="preserve" fill="#444444" text-anchor="middle" pointer-events="none" font-family="Tahoma, Verdana, Helvetica, Arial" font-weight="normal"  style="display: block;"><tspan  dy="-0.3em">Stores accepted</tspan><tspan dy="1.2em" x="0" >dataset</tspan></text></g><g id="v-2352"  label-idx="1" cursor="move" transform="matrix(1,0,0,1,1600.078125,927.461669921875)" style="cursor: default;"><rect joint-selector="rect" id="v-2356" fill="#ffffff" rx="3" ry="3" x="2.2737367544323206e-13" y="0" width="0" height="0"  display="none"></rect><text joint-selector="text" id="v-2355" fill="#000000" font-size="14" text-anchor="middle" text-vertical-anchor="middle" pointer-events="none"></text></g></g></g><!--z-index:25--><!--z-index:26--><!--z-index:27--><!--z-index:28--><!--z-index:29--><!--z-index:30--><!--z-index:31--><!--z-index:32--><!--z-index:33--><!--z-index:34--><!--z-index:35--><!--z-index:36--><!--z-index:37--><!--z-index:38--><!--z-index:39--><!--z-index:40--><!--z-index:41--><!--z-index:42--><!--z-index:43--><!--z-index:44--><!--z-index:45--><!--z-index:46--><!--z-index:47--><!--z-index:48--><!--z-index:49--></g><g  style="user-select: none;"></g><g ></g><g  display="none"></g></g></svg>