<svg xmlns="http://www.w3.org/2000/svg" xmlns:xlink="http://www.w3.org/1999/xlink" version="1.1" width="1840" height="1058" style="width: 1840px; height: 1058px; background: #ffffff" viewBox="0 0 1840 1058"><style id="v-3" type="text/css">        .joint-element .scalable * {            vector-effect: non-scaling-stroke;        }    </style><defs joint-selector="defs"><marker id="v-21252848929" orient="auto" overflow="visible" markerUnits="userSpaceOnUse"><path id="v-62" stroke="#444444" fill="#444444" transform="rotate(180)" d="M 20 -10 0 0 20 10 Z"></path></marker><marker id="v-2-527367903" orient="auto" overflow="visible" markerUnits="userSpaceOnUse"><path id="v-1740" stroke="#cccccc" fill="#cccccc" transform="rotate(180)" d="M 20 -10 0 0 20 10 Z"></path></marker></defs><g  joint-selector="layers" transform="matrix(1,0,0,1,0,0)"><g style="pointer-events: none;" ></g><g ></g><g  style="user-select: none;"><!--z-index:-2--><!--z-index:-1--><!--z-index:0--><!--z-index:1--><!--z-index:2--><!--z-index:3--><!--z-index:4--><!--z-index:5--><g   id="j_469"  transform="translate(200,143)" style=""><g  id="v-4875" style="opacity: 1;"><rect  id="v-4876" width="1440" height="658" rx="10" ry="10" stroke-width="2" pointer-events="none" stroke="#444444" stroke-dasharray="" fill="#ffffff" opacity="1" style="stroke: rgb(68, 68, 68);"></rect><text  id="v-4877" font-size="33.599999999999994px" xml:space="preserve" y="619" font-weight="bold" text-anchor="start" pointer-events="visible" font-family="Tahoma, Verdana, Helvetica, Arial" fill="#444444" transform="matrix(1,0,0,1,15,0)" style="fill: rgb(68, 68, 68);"><tspan  dy="0">User-accessible Python Runtime</tspan></text><text  id="v-4878" font-size="16.799999999999997px" xml:space="preserve" y="643" font-weight="normal" text-anchor="start" pointer-events="visible" font-family="Tahoma, Verdana, Helvetica, Arial" fill="#444444" transform="matrix(1,0,0,1,15,0)" style="display: block; fill: rgb(68, 68, 68);"><tspan  dy="0">[Deployment Node: Python 3.12+]</tspan></text><text  id="v-4879" font-size="40px" xml:space="preserve" display="none" y="643" font-weight="normal" fill="#444444" text-anchor="end" pointer-events="visible" font-family="Tahoma, Verdana, Helvetica, Arial" transform="matrix(1,0,0,1,1425,0)"><tspan style="fill-opacity: 0; stroke-opacity: 0;"  dy="0">-</tspan></text><image  id="v-4880" pointer-events="visible"></image></g></g><!--z-index:6--><g   id="j_470"  transform="translate(250,193)" style=""><g  id="v-4881" style="opacity: 1;"><rect  id="v-4882" width="1340" height="479" rx="10" ry="10" stroke-width="2" pointer-events="none" stroke="#444444" stroke-dasharray="" fill="#ffffff" opacity="1" style="stroke: rgb(68, 68, 68);"></rect><text  id="v-4883" font-size="33.599999999999994px" xml:space="preserve" y="440" font-weight="bold" text-anchor="start" pointer-events="visible" font-family="Tahoma, Verdana, Helvetica, Arial" fill="#444444" transform="matrix(1,0,0,1,15,0)" style="fill: rgb(68, 68, 68);"><tspan  dy="0">Streamlit Process</tspan></text><text  id="v-4884" font-size="16.799999999999997px" xml:space="preserve" y="464" font-weight="normal" text-anchor="start" pointer-events="visible" font-family="Tahoma, Verdana, Helvetica, Arial" fill="#444444" transform="matrix(1,0,0,1,15,0)" style="display: block; fill: rgb(68, 68, 68);"><tspan  dy="0">[Deployment Node: Streamlit]</tspan></text><text  id="v-4885" font-size="40px" xml:space="preserve" display="none" y="464" font-weight="normal" fill="#444444" text-anchor="end" pointer-events="visible" font-family="Tahoma, Verdana, Helvetica, Arial" transform="matrix(1,0,0,1,1325,0)"><tspan style="fill-opacity: 0; stroke-opacity: 0;"  dy="0">-</tspan></text><image  id="v-4886" pointer-events="visible"></image></g></g><!--z-index:7--><g   id="j_467"  transform="translate(300,243)" style=""><g  id="v-4852" style="opacity: 1;"><rect  id="v-4853" rx="1" ry="1" stroke-width="2" pointer-events="visiblePainted" fill="#4f7cac" stroke="#47709b" stroke-dasharray="" width="450" height="300" style="fill: rgb(79, 124, 172); stroke: rgb(71, 112, 155);"></rect><text  id="v-4854" font-size="33.599999999999994px" xml:space="preserve" y="23.54000000000002" font-weight="bold" text-anchor="middle" pointer-events="visible" font-family="Tahoma, Verdana, Helvetica, Arial" fill="#ffffff" dominant-baseline="hanging" transform="matrix(1,0,0,1,225,0)" style="fill: rgb(255, 255, 255);"><tspan  dy="0">Streamlit Web</tspan><tspan dy="1.2em" x="0" >Application</tspan></text><text  id="v-4855" font-size="16.799999999999997px" xml:space="preserve" y="105.46000000000001" text-anchor="middle" font-family="Tahoma, Verdana, Helvetica, Arial" fill="#ffffff" dominant-baseline="hanging" transform="matrix(1,0,0,1,225,0)" style="display: block; fill: rgb(255, 255, 255);"><tspan  dy="0">[Container: Python 3.12, Streamlit]</tspan></text><text  id="v-4856" font-size="24px" xml:space="preserve" y="137.26" text-anchor="middle" font-family="Tahoma, Verdana, Helvetica, Arial" fill="#ffffff" dominant-baseline="hanging" transform="matrix(1,0,0,1,225,0)" style="display: block; fill: rgb(255, 255, 255);"><tspan  dy="0">Provides the interactive</tspan><tspan dy="1.2em" x="0" >workflow, validates inputs, fits</tspan><tspan dy="1.2em" x="0" >the model, visualizes</tspan><tspan dy="1.2em" x="0" >uncertainty, and creates</tspan><tspan dy="1.2em" x="0" >exports.</tspan></text><g  id="v-4857" color="#ffffff" transform="matrix(1,0,0,1,210,268)" style="fill: rgb(255, 255, 255);" display="none"><g  transform="translate(5 0)"><svg xmlns="http://www.w3.org/2000/svg" width="20" height="20" fill="currentColor" viewBox="0 0 16 16"><path fill-rule="evenodd" d="M6.5 12a5.5 5.5 0 1 0 0-11 5.5 5.5 0 0 0 0 11zM13 6.5a6.5 6.5 0 1 1-13 0 6.5 6.5 0 0 1 13 0z"></path><path d="M10.344 11.742c.03.04.062.078.098.115l3.85 3.85a1 1 0 0 0 1.415-1.414l-3.85-3.85a1.007 1.007 0 0 0-.115-.1 6.538 6.538 0 0 1-1.398 1.4z"></path><path fill-rule="evenodd" d="M6.5 3a.5.5 0 0 1 .5.5V6h2.5a.5.5 0 0 1 0 1H7v2.5a.5.5 0 0 1-1 0V7H3.5a.5.5 0 0 1 0-1H6V3.5a.5.5 0 0 1 .5-.5z"></path></svg></g><g ></g><g ></g><g ></g></g><image  id="v-4858"></image></g></g><!--z-index:8--><g   id="j_468"  transform="translate(1090,243)" style=""><g  id="v-4868" style="opacity: 1;"><rect  id="v-4869" rx="1" ry="1" stroke-width="2" pointer-events="visiblePainted" fill="#4f7cac" stroke="#47709b" stroke-dasharray="" width="450" height="300" style="fill: rgb(79, 124, 172); stroke: rgb(71, 112, 155);"></rect><text  id="v-4870" font-size="33.599999999999994px" xml:space="preserve" y="13.460000000000008" font-weight="bold" text-anchor="middle" pointer-events="visible" font-family="Tahoma, Verdana, Helvetica, Arial" fill="#ffffff" dominant-baseline="hanging" transform="matrix(1,0,0,1,225,0)" style="fill: rgb(255, 255, 255);"><tspan  dy="0">In-memory Analysis</tspan><tspan dy="1.2em" x="0" >Session</tspan></text><text  id="v-4871" font-size="16.799999999999997px" xml:space="preserve" y="95.38" text-anchor="middle" font-family="Tahoma, Verdana, Helvetica, Arial" fill="#ffffff" dominant-baseline="hanging" transform="matrix(1,0,0,1,225,0)" style="display: block; fill: rgb(255, 255, 255);"><tspan  dy="0">[Container: Streamlit session state, Python</tspan><tspan dy="1.2em" x="0" >objects]</tspan></text><text  id="v-4872" font-size="24px" xml:space="preserve" y="147.34" text-anchor="middle" font-family="Tahoma, Verdana, Helvetica, Arial" fill="#ffffff" dominant-baseline="hanging" transform="matrix(1,0,0,1,225,0)" style="display: block; fill: rgb(255, 255, 255);"><tspan  dy="0">Ephemeral active-session state</tspan><tspan dy="1.2em" x="0" >for uploaded data, selected</tspan><tspan dy="1.2em" x="0" >variables, settings, prediction</tspan><tspan dy="1.2em" x="0" >results, visualization metadata,</tspan><tspan dy="1.2em" x="0" >and export payloads.</tspan></text><g  id="v-4873" color="#ffffff" transform="matrix(1,0,0,1,222.5,268)" style="fill: rgb(255, 255, 255);" display="none"><g ></g><g ></g><g ></g><g ></g></g><image  id="v-4874"></image></g></g><!--z-index:9--><g   id="j_466"  transform="translate(20,1014)"><g id="v-4841"><text  id="v-4842" font-size="24px" xml:space="preserve" y="0.8em" font-weight="normal" text-anchor="start" fill="#444444" pointer-events="none" display="block" font-family="Tahoma, Verdana, Helvetica, Arial"><tspan  dy="0">Thursday, July 16, 2026 at 12:43 PM Central European Summer Time</tspan></text></g></g><!--z-index:10--><g   id="j_465"  transform="translate(20,980)"><g id="v-4839"><text  id="v-4840" font-size="24px" xml:space="preserve" y="0.8em" font-weight="normal" text-anchor="start" fill="#444444" pointer-events="none" display="block" font-family="Tahoma, Verdana, Helvetica, Arial"><tspan  dy="0">Shows the MVP deployment assumption: one Streamlit process with in-process session state.</tspan></text></g></g><!--z-index:11--><g   id="j_464"  transform="translate(20,934)"><g id="v-4837"><text  id="v-4838" font-size="36px" xml:space="preserve" y="0.8em" font-weight="normal" text-anchor="start" fill="#444444" pointer-events="none" display="block" font-family="Tahoma, Verdana, Helvetica, Arial"><tspan  dy="0">Deployment - Local or Single-Process Streamlit Runtime</tspan></text></g></g><!--z-index:12--><g   id="j_471"  style="opacity: 1;"><path fill="none" cursor="pointer" stroke="transparent" stroke-linecap="round" joint-selector="wrapper" id="v-4898" stroke-width="10" stroke-linejoin="round" d="M 750 393 L 1090 393"></path><path fill="none" pointer-events="none" joint-selector="line" id="v-4897" stroke="#444444" stroke-width="2" stroke-linejoin="round" stroke-dasharray="8 8" d="M 750 393 L 1090 393" marker-end="url(#v-21252848929)"></path><g id="v-4890" ><g id="v-4891"  label-idx="0" cursor="move" transform="matrix(1,0,0,1,920,393)" style="cursor: default;"><rect joint-selector="rect" id="v-4894" fill="#ffffff" rx="3" ry="3" x="-96.65791320800781" y="-31.60599708557129" width="193.3158416748047" height="58.697349548339844" pointer-events="none"  style="display: block;"></rect><text joint-selector="text" id="v-4893" font-size="24px" xml:space="preserve" fill="#444444" text-anchor="middle" pointer-events="none" font-family="Tahoma, Verdana, Helvetica, Arial" font-weight="normal"  style="display: block;"><tspan  dy="-0.3em">Stores accepted</tspan><tspan dy="1.2em" x="0" >dataset</tspan></text></g><g id="v-4892"  label-idx="1" cursor="move" transform="matrix(1,0,0,1,910,419.3999938964844)" style="cursor: default;"><rect joint-selector="rect" id="v-4896" fill="#ffffff" rx="3" ry="3" x="-5.684341886080802e-14" y="-1.4210854715202004e-14" width="0" height="0"  display="none"></rect><text joint-selector="text" id="v-4895" fill="#000000" font-size="14" text-anchor="middle" text-vertical-anchor="middle" pointer-events="none"></text></g></g></g><!--z-index:13--><!--z-index:14--><!--z-index:15--><!--z-index:16--><!--z-index:17--><!--z-index:18--><!--z-index:19--><!--z-index:20--><!--z-index:21--><!--z-index:22--><!--z-index:23--><!--z-index:24--><!--z-index:25--><!--z-index:26--><!--z-index:27--><!--z-index:28--><!--z-index:29--><!--z-index:30--><!--z-index:31--><!--z-index:32--><!--z-index:33--><!--z-index:34--><!--z-index:35--><!--z-index:36--><!--z-index:37--><!--z-index:38--><!--z-index:39--><!--z-index:40--><!--z-index:41--><!--z-index:42--><!--z-index:43--><!--z-index:44--><!--z-index:45--><!--z-index:46--><!--z-index:47--><!--z-index:48--><!--z-index:49--></g><g  style="user-select: none;"></g><g ></g><g  display="none"></g></g></svg>