<svg xmlns="http://www.w3.org/2000/svg" xmlns:xlink="http://www.w3.org/1999/xlink" version="1.1" width="2380" height="895" style="width: 2380px; height: 895px; background: #ffffff" viewBox="0 0 2380 895"><style id="v-3" type="text/css">        .joint-element .scalable * {            vector-effect: non-scaling-stroke;        }    </style><defs joint-selector="defs"><marker id="v-21252848929" orient="auto" overflow="visible" markerUnits="userSpaceOnUse"><path id="v-62" stroke="#444444" fill="#444444" transform="rotate(180)" d="M 20 -10 0 0 20 10 Z"></path></marker><marker id="v-2-527367903" orient="auto" overflow="visible" markerUnits="userSpaceOnUse"><path id="v-1740" stroke="#cccccc" fill="#cccccc" transform="rotate(180)" d="M 20 -10 0 0 20 10 Z"></path></marker></defs><g  joint-selector="layers" transform="matrix(1,0,0,1,0,0)"><g style="pointer-events: none;" ></g><g ></g><g  style="user-select: none;"><!--z-index:-2--><!--z-index:-1--><!--z-index:0--><!--z-index:1--><!--z-index:2--><!--z-index:3--><!--z-index:4--><!--z-index:5--><!--z-index:6--><!--z-index:7--><!--z-index:8--><!--z-index:9--><g   id="j_209"  transform="translate(20,851)"><g id="v-2138"><text  id="v-2139" font-size="24px" xml:space="preserve" y="0.8em" font-weight="normal" text-anchor="start" fill="#444444" pointer-events="none" display="block" font-family="Tahoma, Verdana, Helvetica, Arial"><tspan  dy="0" display="block">Thursday, July 16, 2026 at 12:43 PM Central European Summer Time</tspan></text></g></g><!--z-index:10--><g   id="j_208"  transform="translate(20,817)"><g id="v-2136"><text  id="v-2137" font-size="24px" xml:space="preserve" y="0.8em" font-weight="normal" text-anchor="start" fill="#444444" pointer-events="none" display="block" font-family="Tahoma, Verdana, Helvetica, Arial"><tspan  dy="0" display="block">Shows the researcher, the application, and the local file-system boundary for uploads and downloads.</tspan></text></g></g><!--z-index:11--><g   id="j_207"  transform="translate(20,771)"><g id="v-2134"><text  id="v-2135" font-size="36px" xml:space="preserve" y="0.8em" font-weight="normal" text-anchor="start" fill="#444444" pointer-events="none" display="block" font-family="Tahoma, Verdana, Helvetica, Arial"><tspan  dy="0" display="block">System Context - Gaussian Process Regression Web Application</tspan></text></g></g><!--z-index:12--><g   id="j_210"  transform="translate(199,153)" style=""><g  id="v-2143" style="opacity: 1;"><rect  x="0" y="160" width="400" height="240" rx="70" id="v-2145" stroke-width="2" pointer-events="visiblePainted" fill="#0b5f6a" stroke="#0a565f" stroke-dasharray="" style="fill: rgb(11, 95, 106); stroke: rgb(10, 86, 95);"></rect><circle  cx="200" cy="88.88888888888889" r="88.88888888888889" id="v-2144" stroke-width="2" pointer-events="visiblePainted" fill="#0b5f6a" stroke="#0a565f" stroke-dasharray="" style="fill: rgb(11, 95, 106); stroke: rgb(10, 86, 95);"></circle><line  x1="80" y1="266.6666666666667" x2="80" y2="400" id="v-2151" stroke="#0a565f" stroke-width="1" stroke-dasharray="" style="stroke: rgb(10, 86, 95);"></line><line  x1="320" y1="266.6666666666667" x2="320" y2="400" id="v-2152" stroke="#0a565f" stroke-width="1" stroke-dasharray="" style="stroke: rgb(10, 86, 95);"></line><text  id="v-2146" font-size="33.599999999999994px" xml:space="preserve" y="159.3" font-weight="bold" text-anchor="middle" pointer-events="visible" font-family="Tahoma, Verdana, Helvetica, Arial" fill="#ffffff" dominant-baseline="hanging" transform="matrix(1,0,0,1,200,0)" style="fill: rgb(255, 255, 255);"><tspan  dy="0">Researcher</tspan></text><text  id="v-2147" font-size="16.799999999999997px" xml:space="preserve" y="200.9" text-anchor="middle" font-family="Tahoma, Verdana, Helvetica, Arial" fill="#ffffff" dominant-baseline="hanging" transform="matrix(1,0,0,1,200,0)" style="display: block; fill: rgb(255, 255, 255);"><tspan  dy="0">[Person]</tspan></text><text  id="v-2148" font-size="24px" xml:space="preserve" y="232.7" text-anchor="middle" font-family="Tahoma, Verdana, Helvetica, Arial" fill="#ffffff" dominant-baseline="hanging" transform="matrix(1,0,0,1,200,0)" style="display: block; fill: rgb(255, 255, 255);"><tspan  dy="0">Uploads small experimental</tspan><tspan dy="1.2em" x="0" >datasets, configures</tspan><tspan dy="1.2em" x="0" >Gaussian Process</tspan><tspan dy="1.2em" x="0" >Regression, interprets</tspan><tspan dy="1.2em" x="0" >uncertainty, and exports</tspan><tspan dy="1.2em" x="0" >results.</tspan></text><g  id="v-2149" font-weight="normal" text-anchor="middle" color="#ffffff" transform="matrix(1,0,0,1,197.5,368)" style="fill: rgb(255, 255, 255);" display="none"><g ></g><g ></g><g ></g><g ></g></g><image  id="v-2150"></image></g></g><!--z-index:13--><g   id="j_211"  transform="translate(1729,203)" style=""><g  id="v-2159" style="opacity: 1;"><rect  id="v-2160" rx="1" ry="1" stroke-width="2" pointer-events="visiblePainted" fill="#6d6d6d" stroke="#626262" stroke-dasharray="" width="450" height="300" style="fill: rgb(109, 109, 109); stroke: rgb(98, 98, 98);"></rect><text  id="v-2161" font-size="33.599999999999994px" xml:space="preserve" y="37.94000000000001" font-weight="bold" text-anchor="middle" pointer-events="visible" font-family="Tahoma, Verdana, Helvetica, Arial" fill="#ffffff" dominant-baseline="hanging" transform="matrix(1,0,0,1,225,0)" style="fill: rgb(255, 255, 255);"><tspan  dy="0">Researcher's Local File</tspan><tspan dy="1.2em" x="0" >System</tspan></text><text  id="v-2162" font-size="16.799999999999997px" xml:space="preserve" y="119.86" text-anchor="middle" font-family="Tahoma, Verdana, Helvetica, Arial" fill="#ffffff" dominant-baseline="hanging" transform="matrix(1,0,0,1,225,0)" style="display: block; fill: rgb(255, 255, 255);"><tspan  dy="0">[Software System]</tspan></text><text  id="v-2163" font-size="24px" xml:space="preserve" y="151.66" text-anchor="middle" font-family="Tahoma, Verdana, Helvetica, Arial" fill="#ffffff" dominant-baseline="hanging" transform="matrix(1,0,0,1,225,0)" style="display: block; fill: rgb(255, 255, 255);"><tspan  dy="0">Source of uploaded CSV files</tspan><tspan dy="1.2em" x="0" >and destination for downloaded</tspan><tspan dy="1.2em" x="0" >result, plot, and metadata</tspan><tspan dy="1.2em" x="0" >artifacts.</tspan></text><g  id="v-2164" color="#ffffff" transform="matrix(1,0,0,1,222.5,268)" style="fill: rgb(255, 255, 255);" display="none"><g ></g><g ></g><g ></g><g ></g></g><image  id="v-2165"></image></g></g><!--z-index:14--><g   id="j_212"  transform="translate(939,337)" style=""><g  id="v-2172" style="opacity: 1;"><rect  id="v-2173" rx="1" ry="1" stroke-width="2" pointer-events="visiblePainted" fill="#345995" stroke="#2f5086" stroke-dasharray="" width="450" height="300" style="fill: rgb(52, 89, 149); stroke: rgb(47, 80, 134);"></rect><text  id="v-2174" font-size="33.599999999999994px" xml:space="preserve" y="17.78000000000003" font-weight="bold" text-anchor="middle" pointer-events="visible" font-family="Tahoma, Verdana, Helvetica, Arial" fill="#ffffff" dominant-baseline="hanging" transform="matrix(1,0,0,1,225,0)" style="fill: rgb(255, 255, 255);"><tspan  dy="0">Gaussian Process</tspan><tspan dy="1.2em" x="0" >Regression Web</tspan><tspan dy="1.2em" x="0" >Application</tspan></text><text  id="v-2175" font-size="16.799999999999997px" xml:space="preserve" y="140.02" text-anchor="middle" font-family="Tahoma, Verdana, Helvetica, Arial" fill="#ffffff" dominant-baseline="hanging" transform="matrix(1,0,0,1,225,0)" style="display: block; fill: rgb(255, 255, 255);"><tspan  dy="0">[Software System]</tspan></text><text  id="v-2176" font-size="24px" xml:space="preserve" y="171.82" text-anchor="middle" font-family="Tahoma, Verdana, Helvetica, Arial" fill="#ffffff" dominant-baseline="hanging" transform="matrix(1,0,0,1,225,0)" style="display: block; fill: rgb(255, 255, 255);"><tspan  dy="0">Streamlit application for</tspan><tspan dy="1.2em" x="0" >in-memory Gaussian Process</tspan><tspan dy="1.2em" x="0" >Regression analysis of uploaded</tspan><tspan dy="1.2em" x="0" >CSV data.</tspan></text><g  id="v-2177" color="#ffffff" transform="matrix(1,0,0,1,210,268)" style="fill: rgb(255, 255, 255);" display="none"><g  transform="translate(5 0)"><svg xmlns="http://www.w3.org/2000/svg" width="20" height="20" fill="currentColor" viewBox="0 0 16 16"><path fill-rule="evenodd" d="M6.5 12a5.5 5.5 0 1 0 0-11 5.5 5.5 0 0 0 0 11zM13 6.5a6.5 6.5 0 1 1-13 0 6.5 6.5 0 0 1 13 0z"></path><path d="M10.344 11.742c.03.04.062.078.098.115l3.85 3.85a1 1 0 0 0 1.415-1.414l-3.85-3.85a1.007 1.007 0 0 0-.115-.1 6.538 6.538 0 0 1-1.398 1.4z"></path><path fill-rule="evenodd" d="M6.5 3a.5.5 0 0 1 .5.5V6h2.5a.5.5 0 0 1 0 1H7v2.5a.5.5 0 0 1-1 0V7H3.5a.5.5 0 0 1 0-1H6V3.5a.5.5 0 0 1 .5-.5z"></path></svg></g><g ></g><g ></g><g ></g></g><image  id="v-2178"></image></g></g><!--z-index:15--><g   id="j_213"  style="opacity: 1;"><path fill="none" cursor="pointer" stroke="transparent" stroke-linecap="round" joint-selector="wrapper" id="v-2190" stroke-width="10" stroke-linejoin="round" d="M 599 426.22 L 760 484 C 766 486.5333333333333 772.3333333333333 487.8666666666667 779 488 L 939 487.46" style="stroke-width: 10px;"></path><path fill="none" pointer-events="none" joint-selector="line" id="v-2189" stroke="#444444" stroke-width="2" stroke-linejoin="round" stroke-dasharray="8 8" d="M 599 426.22 L 760 484 C 766 486.5333333333333 772.3333333333333 487.8666666666667 779 488 L 939 487.46" marker-end="url(#v-21252848929)"></path><g id="v-2182" ><g id="v-2183"  label-idx="0" cursor="move" transform="matrix(1,0,0,1,769.25,486.8999938964844)" style="cursor: default;"><rect joint-selector="rect" id="v-2186" fill="#ffffff" rx="3" ry="3" x="-88.18395233154297" y="-31.743749618530273" width="176.36790466308594" height="58.55000305175781" pointer-events="none"  style="display: block;"></rect><text joint-selector="text" id="v-2185" font-size="24px" xml:space="preserve" fill="#444444" text-anchor="middle" pointer-events="none" font-family="Tahoma, Verdana, Helvetica, Arial" font-weight="normal"  style="display: block;"><tspan  dy="-0.3em">Uses to run an</tspan><tspan dy="1.2em" x="0" >analysis</tspan></text></g><g id="v-2184"  label-idx="1" cursor="move" transform="matrix(1,0,0,1,759.25,513.2999877929688)" style="cursor: default;"><rect joint-selector="rect" id="v-2188" fill="#ffffff" rx="3" ry="3" x="0" y="0" width="0" height="0"  display="none"></rect><text joint-selector="text" id="v-2187" fill="#000000" font-size="14" text-anchor="middle" text-vertical-anchor="middle" pointer-events="none"></text></g></g></g><!--z-index:16--><g   id="j_214"  style="opacity: 1;"><path fill="none" cursor="pointer" stroke="transparent" stroke-linecap="round" joint-selector="wrapper" id="v-2202" stroke-width="10" stroke-linejoin="round" d="M 599 280.49 L 760 222 C 766 219.46666666666664 772.3333333333333 218.1333333333333 779 218 L 1549 218 C 1555.6666666666665 218.1333333333333 1562 219.1333333333333 1568 221 L 1729 276.22" style="stroke-width: 10px;"></path><path fill="none" pointer-events="none" joint-selector="line" id="v-2201" stroke="#444444" stroke-width="2" stroke-linejoin="round" stroke-dasharray="8 8" d="M 599 280.49 L 760 222 C 766 219.46666666666664 772.3333333333333 218.1333333333333 779 218 L 1549 218 C 1555.6666666666665 218.1333333333333 1562 219.1333333333333 1568 221 L 1729 276.22" marker-end="url(#v-21252848929)"></path><g id="v-2194" ><g id="v-2195"  label-idx="0" cursor="move" transform="matrix(1,0,0,1,1163.9886474609375,218)" style="cursor: default;"><rect joint-selector="rect" id="v-2198" fill="#ffffff" rx="3" ry="3" x="-83.2008285522461" y="-74.9437484741211" width="166.40167236328125" height="144.95001220703125" pointer-events="none"  style="display: block;"></rect><text joint-selector="text" id="v-2197" font-size="24px" xml:space="preserve" fill="#444444" text-anchor="middle" pointer-events="none" font-family="Tahoma, Verdana, Helvetica, Arial" font-weight="normal"  style="display: block;"><tspan  dy="-2.1em">Selects CSV</tspan><tspan dy="1.2em" x="0" >files from and</tspan><tspan dy="1.2em" x="0" >saves</tspan><tspan dy="1.2em" x="0" >downloaded</tspan><tspan dy="1.2em" x="0" >artifacts to</tspan></text></g><g id="v-2196"  label-idx="1" cursor="move" transform="matrix(1,0,0,1,1153.9886474609375,287.6000061035156)" style="cursor: default;"><rect joint-selector="rect" id="v-2200" fill="#ffffff" rx="3" ry="3" x="0" y="0" width="0" height="0"  display="none"></rect><text joint-selector="text" id="v-2199" fill="#000000" font-size="14" text-anchor="middle" text-vertical-anchor="middle" pointer-events="none"></text></g></g></g><!--z-index:17--><g   id="j_215"  style="opacity: 1;"><path fill="none" cursor="pointer" stroke="transparent" stroke-linecap="round" joint-selector="wrapper" id="v-2214" stroke-width="10" stroke-linejoin="round" d="M 1729 471.37 L 1568 556 C 1562 559.1999999999999 1555.6666666666665 560.1999999999999 1549 559 L 1389 529.04"></path><path fill="none" pointer-events="none" joint-selector="line" id="v-2213" stroke="#444444" stroke-width="2" stroke-linejoin="round" stroke-dasharray="8 8" d="M 1729 471.37 L 1568 556 C 1562 559.1999999999999 1555.6666666666665 560.1999999999999 1549 559 L 1389 529.04" marker-end="url(#v-21252848929)"></path><g id="v-2206" ><g id="v-2207"  label-idx="0" cursor="move" transform="matrix(1,0,0,1,1558.712890625,559.1558227539062)" style="cursor: default;"><rect joint-selector="rect" id="v-2210" fill="#ffffff" rx="3" ry="3" x="-83.95697784423828" y="-46.14374923706055" width="167.91395568847656" height="87.35000610351562" pointer-events="none"  style="display: block;"></rect><text joint-selector="text" id="v-2209" font-size="24px" xml:space="preserve" fill="#444444" text-anchor="middle" pointer-events="none" font-family="Tahoma, Verdana, Helvetica, Arial" font-weight="normal"  style="display: block;"><tspan  dy="-0.8999999999999999em">Provides</tspan><tspan dy="1.2em" x="0" >uploaded CSV</tspan><tspan dy="1.2em" x="0" >content</tspan></text></g><g id="v-2208"  label-idx="1" cursor="move" transform="matrix(1,0,0,1,1548.712890625,599.955810546875)" style="cursor: default;"><rect joint-selector="rect" id="v-2212" fill="#ffffff" rx="3" ry="3" x="0" y="0" width="0" height="0"  display="none"></rect><text joint-selector="text" id="v-2211" fill="#000000" font-size="14" text-anchor="middle" text-vertical-anchor="middle" pointer-events="none"></text></g></g></g><!--z-index:18--><g   id="j_216"  style="opacity: 1;"><path fill="none" cursor="pointer" stroke="transparent" stroke-linecap="round" joint-selector="wrapper" id="v-2226" stroke-width="10" stroke-linejoin="round" d="M 1389 440.63 L 1549 408 C 1555.6666666666665 406.4 1562.3333333333333 405.0666666666666 1569 404 L 1729 382.96"></path><path fill="none" pointer-events="none" joint-selector="line" id="v-2225" stroke="#444444" stroke-width="2" stroke-linejoin="round" stroke-dasharray="8 8" d="M 1389 440.63 L 1549 408 C 1555.6666666666665 406.4 1562.3333333333333 405.0666666666666 1569 404 L 1729 382.96" marker-end="url(#v-21252848929)"></path><g id="v-2218" ><g id="v-2219"  label-idx="0" cursor="move" transform="matrix(1,0,0,1,1559.078125,405.7843933105469)" style="cursor: default;"><rect joint-selector="rect" id="v-2222" fill="#ffffff" rx="3" ry="3" x="-83.84541320800781" y="-60.54375076293945" width="167.69082641601562" height="116.15000915527344" pointer-events="none"  style="display: block;"></rect><text joint-selector="text" id="v-2221" font-size="24px" xml:space="preserve" fill="#444444" text-anchor="middle" pointer-events="none" font-family="Tahoma, Verdana, Helvetica, Arial" font-weight="normal"  style="display: block;"><tspan  dy="-1.4999999999999998em">Provides</tspan><tspan dy="1.2em" x="0" >downloaded</tspan><tspan dy="1.2em" x="0" >results, plot,</tspan><tspan dy="1.2em" x="0" >and metadata</tspan></text></g><g id="v-2220"  label-idx="1" cursor="move" transform="matrix(1,0,0,1,1549.078125,460.984375)" style="cursor: default;"><rect joint-selector="rect" id="v-2224" fill="#ffffff" rx="3" ry="3" x="0" y="0" width="0" height="0"  display="none"></rect><text joint-selector="text" id="v-2223" fill="#000000" font-size="14" text-anchor="middle" text-vertical-anchor="middle" pointer-events="none"></text></g></g></g><!--z-index:19--><!--z-index:20--><!--z-index:21--><!--z-index:22--><!--z-index:23--><!--z-index:24--><!--z-index:25--><!--z-index:26--><!--z-index:27--><!--z-index:28--><!--z-index:29--><!--z-index:30--><!--z-index:31--><!--z-index:32--><!--z-index:33--><!--z-index:34--><!--z-index:35--><!--z-index:36--><!--z-index:37--><!--z-index:38--><!--z-index:39--><!--z-index:40--><!--z-index:41--><!--z-index:42--><!--z-index:43--><!--z-index:44--><!--z-index:45--><!--z-index:46--><!--z-index:47--><!--z-index:48--><!--z-index:49--></g><g  style="user-select: none;"></g><g ></g><g  display="none"></g></g></svg>